Coordinates
version=1
nRows=14
nColumns=24
inDegrees=yes

Units are S.I. units (second, meters, Newtons, ...)
Angles are in degrees.

endheader
time	pelvis_tilt	pelvis_list	pelvis_rotation	pelvis_tx	pelvis_ty	pelvis_tz	hip_flexion_r	hip_adduction_r	hip_rotation_r	knee_angle_r	ankle_angle_r	subtalar_angle_r	mtp_angle_r	hip_flexion_l	hip_adduction_l	hip_rotation_l	knee_angle_l	ankle_angle_l	subtalar_angle_l	mtp_angle_l	lumbar_extension	lumbar_bending	lumbar_rotation
      6.52000000	     35.36049857	      6.57188714	      5.21372899	      1.40127531	      0.65370218	     -0.26280699	    -14.56309684	     -4.43023099	    -12.09916455	      2.02355195	     12.58852442	      8.27917048	      0.00000000	    -52.28608832	      0.73239065	      0.47888252	    -16.33430578	     21.06930249	     14.93888086	      0.00000000	    -62.86566756	      0.85214049	    -11.26254566
      6.52500000	     35.53558326	      6.40538997	      5.43521978	      1.40785350	      0.65314378	     -0.26251321	    -14.46422512	     -4.18857986	    -11.70029846	      0.97492012	     12.42035197	      8.24896058	      0.00000000	    -52.53616674	      0.25335534	      0.63870888	    -17.39195629	     20.70585369	     15.07153872	      0.00000000	    -63.01373145	      1.21144839	    -11.16137907
      6.53000000	     35.74176671	      6.20416423	      5.68485918	      1.41447973	      0.65265521	     -0.26224276	    -14.36985332	     -3.89429611	    -11.30175999	     -0.26051494	     12.15684601	      8.06298529	      0.00000000	    -52.75624329	     -0.27087101	      0.78147770	    -18.56095106	     20.25807964	     15.17105901	      0.00000000	    -63.17969809	      1.61666098	    -11.00051348
      6.53500000	     35.96014057	      5.93924200	      5.90534595	      1.42123635	      0.65222516	     -0.26189455	    -14.25205144	     -3.51658027	    -10.75455126	     -1.65781821	     11.78418344	      7.52635519	      0.00000000	    -52.95957260	     -0.82124388	      0.79310988	    -19.77657447	     19.62077676	     15.22301853	      0.00000000	    -63.32647936	      2.03360228	    -10.77967094
      6.54000000	     36.20765200	      5.71626676	      6.15954825	      1.42787961	      0.65184332	     -0.26159376	    -14.14045204	     -3.18286266	    -10.51418078	     -3.20108022	     11.43238761	      7.47834840	      0.00000000	    -53.07536653	     -1.36394929	      0.83505906	    -21.18825869	     18.96439372	     15.29578482	      0.00000000	    -63.52869829	      2.44744211	    -10.60379865
      6.54500000	     36.41617030	      5.41359121	      6.39025404	      1.43469834	      0.65147498	     -0.26127072	    -13.96139492	     -2.74835829	    -10.08727911	     -4.84896270	     10.95200772	      6.87700407	      0.00000000	    -53.10755935	     -1.92152765	      0.83702834	    -22.67391573	     18.10897647	     15.21920479	      0.00000000	    -63.64062511	      2.89344180	    -10.31563093
      6.55000000	     36.63947059	      5.12555901	      6.57084856	      1.44144831	      0.65113307	     -0.26088340	    -13.76290334	     -2.33946969	     -9.75987524	     -6.60225935	     10.47257884	      6.45856618	      0.00000000	    -53.06958258	     -2.43092193	      0.75690707	    -24.28393242	     17.13637227	     15.15477953	      0.00000000	    -63.78783739	      3.28683245	    -10.04844856
      6.55500000	     36.87938474	      4.85329809	      6.77487618	      1.44820705	      0.65084581	     -0.26048286	    -13.60334755	     -1.92928192	     -9.51678551	     -8.37311046	      9.96881320	      6.10849171	      0.00000000	    -52.96575992	     -2.95317778	      0.63795170	    -26.00914415	     16.01185580	     15.03357422	      0.00000000	    -63.94450434	      3.67015981	     -9.79878273
      6.56000000	     37.06513269	      4.54948701	      6.92129668	      1.45502802	      0.65052921	     -0.26001936	    -13.38763733	     -1.48496181	     -9.14660649	    -10.14911250	      9.52302280	      5.53820082	      0.00000000	    -52.71589982	     -3.43201144	      0.47408948	    -27.87689760	     14.70893153	     14.76773924	      0.00000000	    -64.02696274	      4.02026246	     -9.54961632
      6.56500000	     37.24275204	      4.27599427	      7.06100217	      1.46183850	      0.65025092	     -0.25952702	    -13.17643433	     -1.07036199	     -8.84608596	    -11.94177650	      9.11559345	      5.06541322	      0.00000000	    -52.38878779	     -3.88982824	      0.26076781	    -29.80659949	     13.24344717	     14.45443690	      0.00000000	    -64.10110596	      4.32956118	     -9.28862531
      6.57000000	     37.34800958	      4.01938946	      7.12001899	      1.46863630	      0.64996189	     -0.25894549	    -12.87782673	     -0.69448282	     -8.51269920	    -13.75855015	      8.79277958	      4.56259899	      0.00000000	    -51.91006301	     -4.26571425	     -0.01356482	    -31.81225475	     11.57984659	     14.10832921	      0.00000000	    -64.10721367	      4.55411347	     -9.03730974
      6.57500000	     37.59389108	      3.74174011	      7.33890320	      1.47550607	      0.64979795	     -0.25850183	    -12.88252471	     -0.22111723	     -8.40762307	    -15.35151417	      8.55761790	      4.15987428	      0.00000000	    -51.50909524	     -4.80446507	     -0.25281568	    -33.88055972	      9.79743017	     13.53922372	      0.00000000	    -64.21657540	      4.91620000	     -8.78006727
      6.58000000	     37.79450028	      3.49151321	      7.51130200	      1.48235250	      0.64964762	     -0.25798395	    -12.85813435	      0.22350659	     -8.22955597	    -16.91613844	      8.43989576	      3.66543649	      0.00000000	    -50.99295145	     -5.28746676	     -0.52299725	    -35.98507638	      7.84548045	     12.87083742	      0.00000000	    -64.28032426	      5.21233532	     -8.56177304
      6.58500000	     37.83114839	      3.29058147	      7.56631757	      1.48912527	      0.64943355	     -0.25727444	    -12.64215600	      0.58031282	     -7.95535937	    -18.49670127	      8.52467280	      3.14507149	      0.00000000	    -50.21378065	     -5.63962582	     -0.86200970	    -38.16199292	      5.75840238	     12.12465331	      0.00000000	    -64.20773043	      5.33313180	     -8.35283847
